<svg width="303" height="102" viewBox="0 0 303 102" fill="none" xmlns="http://www.w3.org/2000/svg">
<g clip-path="url(#clip0_109_1593)">
<path fill-rule="evenodd" clip-rule="evenodd" d="M0.119995 0.119995H302.88V60.9902C302.88 83.7947 283.286 101.88 259.63 101.88H43.3701C19.7141 101.88 0.119995 83.7947 0.119995 60.9902V0.119995ZM7.88 7.88V60.9902C7.88 79.064 23.5408 94.12 43.3701 94.12H259.63C279.459 94.12 295.12 79.064 295.12 60.9902V7.88H7.88Z" fill="lightgray"/>
<path fill-rule="evenodd" clip-rule="evenodd" d="M217 0H302.97V61.04C302.97 84.1894 281.488 102.04 256.21 102.04H217V0ZM224.76 7.76V94.28H256.21C278.291 94.28 295.21 78.8906 295.21 61.04V7.76H224.76Z" fill="lightgray"/>
<path d="M260.353 48.7051C264.775 48.7051 267.798 51.754 267.798 56.2131C267.798 60.6721 264.72 63.6029 260.181 63.6029C255.643 63.6029 252.565 60.554 252.565 56.2131C252.565 51.8721 255.705 48.7051 260.361 48.7051M260.189 70C269.61 70 276.008 64.0755 276.008 55.4489C276.008 47.6494 270.774 42.308 262.923 42.308C257.978 42.308 253.963 44.246 251.464 47.5312C251.932 38.6131 255.362 34.154 260.65 34.154C263.908 34.154 266.353 35.9738 267.399 39.3142L275.43 37.1398C273.164 31.0421 267.751 27.7568 261.064 27.7568C249.893 27.7568 243.441 35.8478 243.441 49.8159C243.441 62.6023 249.432 69.9921 260.189 69.9921" fill="lightgray"/>
<path d="M183.156 57.2688C183.156 61.2001 179.665 64.312 175.477 64.312C172.626 64.312 170.822 62.7836 170.822 60.554C170.822 58.3245 172.275 57.0325 175.243 56.5676L183.156 55.1574V57.2688ZM173.384 51.2262C166.924 52.3449 163.033 55.5671 163.033 60.7274C163.033 66.2973 167.455 69.9922 173.853 69.9922C178.094 69.9922 181.586 68.2905 183.859 65.5961C183.977 66.77 184.211 68.062 184.437 69.4092H191.648C190.952 65.2416 190.538 62.0745 190.538 59.3172V48.4058C190.538 40.7166 185.765 36.7302 177.86 36.7302C170.767 36.7302 165.705 40.37 163.432 46.4126L170.525 47.9961C171.689 44.5376 174.134 42.891 177.501 42.891C180.868 42.891 183.141 44.766 183.141 48.5791V49.5796L173.368 51.2183L173.384 51.2262Z" fill="lightgray"/>
<path d="M136.677 52.6915C136.677 47.1216 139.583 43.6 144.067 43.6C147.559 43.6 149.707 45.9477 149.707 49.879V69.417H157.503V48.9414C157.503 41.4335 153.37 36.738 146.567 36.738C142.325 36.738 138.888 38.5579 136.677 41.7801V26H128.881V69.4091H136.677V52.6915Z" fill="lightgray"/>
<path d="M113.757 57.2688C113.757 61.2001 110.266 64.312 106.079 64.312C103.227 64.312 101.423 62.7836 101.423 60.554C101.423 58.3245 102.876 57.0325 105.844 56.5676L113.757 55.1574V57.2688ZM103.985 51.2262C97.5326 52.3449 93.6345 55.5671 93.6345 60.7274C93.6345 66.2973 98.0559 69.9922 104.454 69.9922C108.695 69.9922 112.187 68.2905 114.46 65.5961C114.578 66.77 114.812 68.062 115.039 69.4092H122.249C121.553 65.2416 121.139 62.0745 121.139 59.3172V48.4058C121.139 40.7166 116.367 36.7302 108.461 36.7302C101.368 36.7302 96.3061 40.37 94.0329 46.4126L101.126 47.9961C102.29 44.5376 104.735 42.891 108.102 42.891C111.469 42.891 113.742 44.766 113.742 48.5791V49.5796L103.969 51.2183L103.985 51.2262Z" fill="lightgray"/>
<path d="M79.4953 51.3443C79.4953 44.1909 84.9635 42.7177 90.1973 45.2466L91.7127 37.6204C85.6665 35.446 81.2998 37.9119 79.0344 42.6625V37.3211H71.707V69.4091H79.5031V51.3443H79.4953Z" fill="lightgray"/>
<path d="M43.2023 35.1466H50.5921C55.0135 35.1466 57.6304 37.4944 57.6304 41.5438C57.6304 45.5932 55.0135 47.9409 50.5921 47.9409H43.2023V35.1466ZM43.2023 54.7398H50.8265C60.3645 54.7398 66.0671 49.8159 66.0671 41.5438C66.0671 33.2716 60.3567 28.3398 50.8187 28.3398H35V69.4013H43.2023V54.732V54.7398Z" fill="lightgray"/>
</g>
<defs>
<clipPath id="clip0_109_1593">
<rect width="303" height="102" fill="lightgray"/>
</clipPath>
</defs>
</svg>
